<?xml version="1.0" encoding="UTF-8" standalone="no"?>
<!-- Generator: Adobe Illustrator 13.0.2, SVG Export Plug-In . SVG Version: 6.00 Build 14948)  -->

<svg
   width="20"
   height="20"
   viewBox="5.5 -3.5 64 64"
   version="1.1"
   id="svg1"
   xmlns="http://www.w3.org/2000/svg"
   xmlns:svg="http://www.w3.org/2000/svg">
  <defs
     id="defs1" />
  <path
     d="m 37.500002,-1.8573152 c -17.19666,0 -31.1251735,13.9285142 -31.1251735,31.1251682 0,13.772887 8.9095805,25.405919 21.2818395,29.530004 1.556258,0.272345 2.139855,-0.66141 2.139855,-1.478445 0,-0.739223 -0.03891,-3.19033 -0.03891,-5.797063 -7.8202,1.439539 -9.843336,-1.906417 -10.465839,-3.657208 -0.350158,-0.894848 -1.86751,-3.657207 -3.19033,-4.39643 -1.089381,-0.583597 -2.645639,-2.023136 -0.03891,-2.062042 2.451107,-0.03891 4.201898,2.256575 4.785495,3.19033 2.801269,4.707682 7.275512,3.384862 9.065209,2.567826 0.272346,-2.023136 1.089381,-3.384862 1.98423,-4.162991 -6.925351,-0.778129 -14.161956,-3.462675 -14.161956,-15.368052 0,-3.384861 1.2061,-6.186126 3.190329,-8.364888 -0.311251,-0.778129 -1.400632,-3.968459 0.311252,-8.24817 0,0 2.606737,-0.817036 8.559426,3.19033 2.490014,-0.700316 5.135653,-1.050474 7.781292,-1.050474 2.64564,0 5.291279,0.350158 7.781293,1.050474 5.952688,-4.046272 8.559421,-3.19033 8.559421,-3.19033 1.711885,4.279711 0.622504,7.470041 0.311252,8.24817 1.984229,2.178762 3.19033,4.941121 3.19033,8.364888 0,11.944283 -7.275509,14.589923 -14.200859,15.368052 1.128288,0.972661 2.100949,2.840171 2.100949,5.758156 0,4.162991 -0.03891,7.508947 -0.03891,8.559422 0,0.817035 0.583597,1.789697 2.139855,1.478445 a 31.171857,31.171857 0 0 0 21.20403,-29.530004 c 0,-17.196654 -13.928515,-31.1251682 -31.12517,-31.1251682 z"
     id="path1"
     style="stroke-width:3.89065" />
</svg>
